<?xml version="1.0" encoding="utf-8"?>
<!-- Generator: Adobe Illustrator 23.0.3, SVG Export Plug-In . SVG Version: 6.00 Build 0)  -->
<svg version="1.1" id="Layer_1" xmlns="http://www.w3.org/2000/svg" xmlns:xlink="http://www.w3.org/1999/xlink" x="0px" y="0px"
	 viewBox="0 0 1271.4 305.6" style="enable-background:new 0 0 1271.4 305.6;" xml:space="preserve">
<style type="text/css">
	.st0{fill:#FFFFFF;}
	.st1{fill:#F6921E;}
</style>
<g>
	<g>
		<path class="st0" d="M586.4,141.5h42.1c12.7,0,57,0,57,42.1c0,30.5-23.3,38.9-40.9,41.1l46.6,76.9h-17l-45-76h-27.8v76h-14.9
			V141.5 M601.3,212H633c31.4,0,37.5-17.4,37.5-28.5c0-11.1-6.1-28.5-37.5-28.5h-31.7V212z"/>
		<path class="st0" d="M769.5,141.5h15.4l67.4,160.1h-16.7l-17.4-42.5h-84.8l-18.1,42.5h-15.6L769.5,141.5 M776.5,157.8l-37.3,87.7
			h73.5L776.5,157.8z"/>
		<path class="st0" d="M868.1,141.5h49.5c83.2,0,86.6,68.3,86.6,80c0,11.8-3.4,80-86.6,80h-49.5V141.5 M883.1,288h30.8
			c42.5,0,75.5-20.6,75.5-66.5c0-45.9-33-66.5-75.5-66.5h-30.8V288z"/>
		<path class="st0" d="M1067.1,141.5h15.4l67.4,160.1h-16.7l-17.4-42.5h-84.8l-18.1,42.5h-15.6L1067.1,141.5 M1074.1,157.8
			l-37.3,87.7h73.5L1074.1,157.8z"/>
		<path class="st0" d="M1166.7,141.5h42.1c12.7,0,57,0,57,42.1c0,30.5-23.3,38.9-40.9,41.1l46.6,76.9h-16.9l-45-76h-27.8v76h-14.9
			V141.5 M1181.6,212h31.6c31.4,0,37.5-17.4,37.5-28.5c0-11.1-6.1-28.5-37.5-28.5h-31.6V212z"/>
		<path class="st1" d="M0,141.5h59.7c28,0,58.6,5.9,58.6,40.7c0,17.9-11.1,30.1-27.6,35.3v0.4c21,2.7,35,18.3,35,39.1
			c0,33.5-31.7,44.5-60.1,44.5H0V141.5 M35.3,205.5h25.5c10.9,0,22.2-4.5,22.2-17.4c0-13.3-12.7-16.7-23.7-16.7h-24V205.5z
			 M35.3,271.7h31.7c11.1,0,23.5-4.8,23.5-18.8c0-15.2-17-17.6-28.5-17.6H35.3V271.7z"/>
		<path class="st1" d="M277.5,239.8c0,37.8-23.1,65.8-67.4,65.8c-44.5,0-67.6-28-67.6-65.8v-98.3h35.3v97
			c0,19.7,13.6,34.6,32.3,34.6c18.5,0,32.1-14.9,32.1-34.6v-97h35.3V239.8"/>
		<polyline class="st1" points="294.3,269 375.5,172.7 297.3,172.7 297.3,141.5 418.2,141.5 418.2,172.7 338.6,269 420.9,269 
			420.9,301.6 294.3,301.6 294.3,269 		"/>
		<polyline class="st1" points="437.7,269 518.9,172.7 440.7,172.7 440.7,141.5 561.6,141.5 561.6,172.7 482,269 564.3,269 
			564.3,301.6 437.7,301.6 437.7,269 		"/>
		<polyline class="st1" points="958.8,0 1043.5,79 1004.2,79.4 1049.9,140.8 965.3,61.9 1004.9,61.9 958.8,0 		"/>
		<polyline class="st1" points="1189,0 1104.3,79 1143.5,79.4 1097.9,140.8 1182.5,61.9 1142.8,61.9 1189,0 		"/>
	</g>
</g>
</svg>
