<?xml version="1.0" encoding="UTF-8"?><svg id="Layer_1" xmlns="http://www.w3.org/2000/svg" viewBox="0 0 2761.22 793.805"><defs><style>.cls-1{fill:#f5911e;}.cls-2{fill:#fff;}.cls-3{fill:#404040;}</style></defs><rect class="cls-2" width="2761.22" height="793.805"/><g><path class="cls-3" d="M1464.894,351.298h66.294c19.958,0,89.815,0,89.815,66.305,0,48.113-36.706,61.292-64.498,64.855l73.413,121.181h-26.744l-70.915-119.762h-43.839v119.762h-23.525v-252.341m23.525,111.202h49.894c49.535,0,59.165-27.446,59.165-44.897s-9.63-44.897-59.165-44.897h-49.894v89.794Z"/><path class="cls-3" d="M1753.574,351.298h24.225l106.213,252.341h-26.383l-27.435-67.014h-133.652l-28.507,67.014h-24.6l110.14-252.341m11.032,25.664l-58.796,138.285h115.834l-57.037-138.285Z"/><path class="cls-3" d="M1908.998,351.298h78.053c131.16,0,136.504,107.639,136.504,126.178s-5.344,126.163-136.504,126.163h-78.053v-252.341m23.522,230.949h48.477c66.999,0,119.021-32.427,119.021-104.77s-52.023-104.77-119.021-104.77h-48.477v209.541Z"/><path class="cls-3" d="M2222.587,351.298h24.23l106.221,252.341h-26.39l-27.446-67.014h-133.635l-28.518,67.014h-24.577l110.114-252.341m11.051,25.664l-58.817,138.285h115.837l-57.02-138.285Z"/><path class="cls-3" d="M2379.647,351.298h66.289c19.958,0,89.826,0,89.826,66.305,0,48.113-36.731,61.292-64.508,64.855l73.399,121.181h-26.721l-70.924-119.762h-43.825v119.762h-23.536v-252.341m23.536,111.202h49.879c49.547,0,59.164-27.446,59.164-44.897s-9.616-44.897-59.164-44.897h-49.879v89.794Z"/><path class="cls-1" d="M540.429,351.298h94.09c44.194,0,92.304,9.285,92.304,64.161,0,28.155-17.451,47.404-43.477,55.601v.709c33.149,4.272,55.242,28.865,55.242,61.655,0,52.748-49.897,70.215-94.802,70.215h-103.356v-252.341m55.598,100.876h40.275c17.104,0,34.929-7.141,34.929-27.446,0-21.03-19.964-26.374-37.428-26.374h-37.776v53.82Zm0,104.423h49.896c17.467,0,37.07-7.488,37.07-29.59,0-23.883-26.729-27.793-44.908-27.793h-42.058v57.382Z"/><path class="cls-1" d="M977.877,506.341c0,59.526-36.354,103.714-106.213,103.714-70.21,0-106.563-44.188-106.563-103.714v-155.043h55.599v152.899c0,31.008,21.384,54.545,50.963,54.545,29.226,0,50.613-23.536,50.613-54.545v-152.899h55.599v155.043"/><polyline class="cls-1" points="1004.392 552.31 1132.338 400.483 1009.029 400.483 1009.029 351.298 1199.701 351.298 1199.701 400.483 1074.251 552.31 1203.975 552.31 1203.975 603.638 1004.392 603.638 1004.392 552.31"/><polyline class="cls-1" points="1230.487 552.31 1358.434 400.483 1235.128 400.483 1235.128 351.298 1425.799 351.298 1425.799 400.483 1300.346 552.31 1430.071 552.31 1430.071 603.638 1230.487 603.638 1230.487 552.31"/><polyline class="cls-1" points="2051.921 128.239 2185.446 252.817 2123.523 253.369 2195.504 350.226 2062.105 225.813 2124.627 225.813 2051.921 128.239"/><polyline class="cls-1" points="2414.755 128.239 2281.215 252.817 2343.153 253.369 2271.173 350.226 2404.571 225.813 2342.034 225.813 2414.755 128.239"/></g></svg>